<?xml version="1.0" encoding="utf-8"?>
<!-- Generator: Adobe Illustrator 16.0.0, SVG Export Plug-In . SVG Version: 6.00 Build 0)  -->
<!DOCTYPE svg PUBLIC "-//W3C//DTD SVG 1.1//EN" "http://www.w3.org/Graphics/SVG/1.1/DTD/svg11.dtd">
<svg version="1.1" id="Layer_1" xmlns="http://www.w3.org/2000/svg" xmlns:xlink="http://www.w3.org/1999/xlink" x="0px" y="0px"
	 width="50px" height="50px" viewBox="0 0 50 50" enable-background="new 0 0 50 50" xml:space="preserve">
<path id="XMLID_975_" fill="#FFFFFF" d="M42.801,36.97c-3.15,0-4.369-1.851-4.369-13.31c0-8.987-4.074-14.636-11.104-15.471V5.324
	c0-1.038-0.838-1.873-1.873-1.873c-1.034,0-1.875,0.835-1.875,1.873V8.13c-7.495,0.61-11.839,6.317-11.839,15.53
	c0,11.459-1.367,13.31-4.521,13.31c-1.034,0-1.899,0.721-1.899,1.762c0,1.035,0.814,1.759,1.852,1.759h12.187
	c0.142,1.403,0.564,3.133,1.704,4.378c0.972,1.06,2.3,1.681,3.841,1.681c1.53,0,2.86-0.644,3.852-1.688
	c1.184-1.252,1.652-2.967,1.832-4.37h12.213c1.039,0,1.879-0.724,1.879-1.759C44.68,37.691,43.84,36.97,42.801,36.97z
	 M26.027,42.308c-0.188,0.203-0.487,0.484-1.124,0.484c-0.621,0-0.898-0.296-1.071-0.484c-0.366-0.398-0.577-0.883-0.689-1.817
	h1.575c0.091,0,0.182-0.008,0.269-0.022c0.087,0.015,0.177,0.022,0.27,0.022h1.527C26.65,41.425,26.42,41.902,26.027,42.308z
	 M25.256,36.742c-0.093,0-0.183,0.003-0.27,0.018c-0.087-0.015-0.178-0.018-0.269-0.018H13.644
	c1.749-3.281,1.749-8.382,1.749-13.158c0-7.629,3.313-11.678,9.325-11.678h0.538c6.011,0,9.326,4.049,9.326,11.678
	c0,4.776,0,9.877,1.748,13.158H25.256z M31.941,20.115c0.057,0.904-0.635,1.681-1.539,1.735c-0.031,0.004-0.064,0.008-0.1,0.008
	c-0.861,0-1.584-0.676-1.635-1.552c-0.125-2.087-1.775-2.859-1.963-2.94c-0.825-0.361-1.22-1.318-0.875-2.146
	c0.347-0.831,1.285-1.229,2.119-0.897C28.102,14.388,31.693,15.881,31.941,20.115z"/>
</svg>
