<?xml version="1.0" encoding="utf-8"?>
<!-- Generator: Adobe Illustrator 16.0.0, SVG Export Plug-In . SVG Version: 6.00 Build 0)  -->
<!DOCTYPE svg PUBLIC "-//W3C//DTD SVG 1.1//EN" "http://www.w3.org/Graphics/SVG/1.1/DTD/svg11.dtd">
<svg version="1.1" id="Layer_1" xmlns="http://www.w3.org/2000/svg" xmlns:xlink="http://www.w3.org/1999/xlink" x="0px" y="0px"
	 width="50px" height="50px" viewBox="0 0 50 50" enable-background="new 0 0 50 50" xml:space="preserve">
<g>
	<path id="XMLID_693_" fill="#DDDCDB" d="M20.199,22.719H8.394c-1.342,0-2.436-1.088-2.436-2.426v-9.314
		c0-1.338,1.094-2.426,2.436-2.426h11.806c1.345,0,2.437,1.088,2.437,2.429v9.312C22.636,21.631,21.544,22.719,20.199,22.719z
		 M9.421,19.256h9.754v-7.24H9.421V19.256z M41.606,22.719H29.801c-1.345,0-2.437-1.088-2.437-2.426v-9.314
		c0-1.338,1.092-2.426,2.435-2.426h11.808c1.344,0,2.436,1.088,2.436,2.429v9.312C44.042,21.631,42.95,22.719,41.606,22.719z
		 M30.827,19.256h9.752v-7.24h-9.752V19.256z M20.199,41.447H8.394c-1.342,0-2.436-1.092-2.436-2.426v-9.314
		c0-1.338,1.094-2.43,2.436-2.43h11.806c1.345,0,2.437,1.092,2.437,2.43v9.314C22.636,40.355,21.544,41.447,20.199,41.447z
		 M9.421,37.98h9.754v-7.236H9.421V37.98z M41.606,41.447H29.801c-1.345,0-2.437-1.092-2.437-2.426v-9.314
		c0-1.338,1.092-2.43,2.437-2.43h11.806c1.344,0,2.436,1.092,2.436,2.43v9.314C44.042,40.355,42.95,41.447,41.606,41.447z
		 M30.827,37.98h9.752v-7.236h-9.752V37.98z"/>
	<rect x="9" y="9" fill="#DDDCDB" width="11" height="11"/>
	<rect x="30" y="9" fill="#DDDCDB" width="11" height="11"/>
	<rect x="8" y="29" fill="#DDDCDB" width="12" height="10"/>
	<rect x="30" y="29" fill="#DDDCDB" width="11" height="10"/>
</g>
</svg>
