<?xml version="1.0" encoding="utf-8"?>
<!-- Generator: Adobe Illustrator 16.0.0, SVG Export Plug-In . SVG Version: 6.00 Build 0)  -->
<!DOCTYPE svg PUBLIC "-//W3C//DTD SVG 1.1//EN" "http://www.w3.org/Graphics/SVG/1.1/DTD/svg11.dtd">
<svg version="1.1" id="Layer_1" xmlns="http://www.w3.org/2000/svg" xmlns:xlink="http://www.w3.org/1999/xlink" x="0px" y="0px"
	 width="50px" height="50px" viewBox="0 0 50 50" enable-background="new 0 0 50 50" xml:space="preserve">
<path id="XMLID_989_" fill="#FFFFFF" d="M36.583,44.676c-0.354,0-0.707-0.097-1.018-0.3l-10.563-6.845l-10.564,6.845
	c-0.656,0.429-1.504,0.399-2.132-0.062s-0.903-1.267-0.69-2.017l3.306-11.722l-9.872-8.349c-0.582-0.491-0.81-1.289-0.573-2.013
	c0.237-0.725,0.889-1.234,1.648-1.286l11.843-0.853l5.329-11.662c0.306-0.669,0.971-1.094,1.706-1.094
	c0.731,0,1.398,0.425,1.703,1.094l5.33,11.662l11.842,0.853c0.759,0.052,1.411,0.562,1.647,1.286
	c0.236,0.724,0.011,1.521-0.57,2.013l-9.875,8.349l3.309,11.722c0.212,0.75-0.064,1.555-0.693,2.017
	C37.366,44.558,36.977,44.676,36.583,44.676z M25.002,33.427c0.353,0,0.708,0.097,1.016,0.3l7.41,4.799l-2.282-8.098
	c-0.199-0.706,0.031-1.463,0.593-1.936l7.279-6.158l-8.36-0.599c-0.683-0.052-1.285-0.473-1.569-1.094L25.002,11.7l-4.089,8.942
	c-0.285,0.621-0.887,1.042-1.57,1.094l-8.361,0.599l7.281,6.158c0.562,0.473,0.796,1.229,0.593,1.936l-2.285,8.098l7.41-4.799
	C24.291,33.524,24.647,33.427,25.002,33.427z"/>
</svg>
