<?xml version="1.0" encoding="utf-8"?>
<!-- Generator: Adobe Illustrator 16.0.0, SVG Export Plug-In . SVG Version: 6.00 Build 0)  -->
<!DOCTYPE svg PUBLIC "-//W3C//DTD SVG 1.1//EN" "http://www.w3.org/Graphics/SVG/1.1/DTD/svg11.dtd">
<svg version="1.1" id="Layer_1" xmlns="http://www.w3.org/2000/svg" xmlns:xlink="http://www.w3.org/1999/xlink" x="0px" y="0px"
	 width="50px" height="50px" viewBox="0 0 50 50" enable-background="new 0 0 50 50" xml:space="preserve">
<g>
	<path id="XMLID_953_" fill="#DDDCDB" d="M6.66,10.407c0-0.993,0.807-1.795,1.796-1.795h33.087c0.991,0,1.797,0.802,1.797,1.795
		s-0.806,1.798-1.797,1.798H8.456C7.467,12.205,6.66,11.4,6.66,10.407z"/>
	<path id="XMLID_743_" fill="#DDDCDB" d="M6.66,17.701c0-0.99,0.807-1.793,1.796-1.793h33.087c0.991,0,1.797,0.803,1.797,1.793
		c0,0.994-0.806,1.799-1.797,1.799H8.456C7.467,19.5,6.66,18.695,6.66,17.701z"/>
	<path id="XMLID_742_" fill="#DDDCDB" d="M6.66,24.996c0-0.989,0.807-1.791,1.796-1.791h33.087c0.991,0,1.797,0.802,1.797,1.791
		c0,0.995-0.806,1.801-1.797,1.801H8.456C7.467,26.797,6.66,25.991,6.66,24.996z"/>
	<path id="XMLID_741_" fill="#DDDCDB" d="M6.66,32.295c0-0.993,0.807-1.795,1.796-1.795h33.087c0.991,0,1.797,0.802,1.797,1.795
		c0,0.992-0.806,1.798-1.797,1.798H8.456C7.467,34.093,6.66,33.287,6.66,32.295z"/>
	<path id="XMLID_740_" fill="#DDDCDB" d="M6.66,39.59c0-0.992,0.807-1.793,1.796-1.793h33.087c0.991,0,1.797,0.801,1.797,1.793
		s-0.806,1.798-1.797,1.798H8.456C7.467,41.388,6.66,40.582,6.66,39.59z"/>
</g>
</svg>
