<?xml version="1.0" encoding="utf-8"?>
<!-- Generator: Adobe Illustrator 16.0.0, SVG Export Plug-In . SVG Version: 6.00 Build 0)  -->
<!DOCTYPE svg PUBLIC "-//W3C//DTD SVG 1.1//EN" "http://www.w3.org/Graphics/SVG/1.1/DTD/svg11.dtd">
<svg version="1.1" id="Layer_1" xmlns="http://www.w3.org/2000/svg" xmlns:xlink="http://www.w3.org/1999/xlink" x="0px" y="0px"
	 width="50px" height="50px" viewBox="0 0 50 50" enable-background="new 0 0 50 50" xml:space="preserve">
<path id="XMLID_1796_" fill="#2488C9" d="M7.767,19.928c0,6.924,5.565,12.561,12.408,12.561c2.684,0,5.171-0.869,7.202-2.344
	L39.166,42.1c0.348,0.355,0.812,0.535,1.273,0.535c0.454,0,0.911-0.176,1.261-0.52c0.703-0.695,0.713-1.828,0.016-2.533
	L29.951,27.646c1.646-2.131,2.632-4.812,2.632-7.719c0-6.93-5.565-12.562-12.408-12.562S7.767,12.998,7.767,19.928z M10.955,19.928
	c0-5.172,4.137-9.377,9.22-9.377s9.223,4.205,9.223,9.377c0,5.166-4.14,9.371-9.223,9.371S10.955,25.094,10.955,19.928z
	 M17.729,13.93c0.699-0.311,1.518,0.006,1.832,0.705c0.315,0.699,0.004,1.525-0.695,1.842c-0.098,0.047-2.424,1.139-2.146,3.229
	c0.1,0.762-0.435,1.461-1.199,1.562c-0.06,0.01-0.123,0.014-0.186,0.014c-0.688,0-1.289-0.508-1.38-1.209
	C13.399,15.902,17.553,14.012,17.729,13.93z"/>
</svg>
