<?xml version="1.0" encoding="utf-8"?>
<!-- Generator: Adobe Illustrator 16.0.0, SVG Export Plug-In . SVG Version: 6.00 Build 0)  -->
<!DOCTYPE svg PUBLIC "-//W3C//DTD SVG 1.1//EN" "http://www.w3.org/Graphics/SVG/1.1/DTD/svg11.dtd">
<svg version="1.1" id="Layer_1" xmlns="http://www.w3.org/2000/svg" xmlns:xlink="http://www.w3.org/1999/xlink" x="0px" y="0px"
	 width="50px" height="50px" viewBox="0 0 50 50" enable-background="new 0 0 50 50" xml:space="preserve">
<g>
	<path id="XMLID_24_" fill="#2488C9" d="M13.657,9.676c0-0.687-0.559-1.246-1.244-1.246H7.081c-0.688,0-1.244,0.56-1.244,1.246
		v5.333c0,0.686,0.557,1.241,1.244,1.241h5.332c0.686,0,1.244-0.556,1.244-1.241V9.676z"/>
	<path id="XMLID_23_" fill="#2488C9" d="M44.164,9.777c0-0.688-0.558-1.245-1.245-1.245h-24.04c-0.689,0-1.245,0.558-1.245,1.245
		v5.333c0,0.687,0.556,1.24,1.245,1.24h24.04c0.688,0,1.245-0.554,1.245-1.24V9.777z"/>
	<path id="XMLID_22_" fill="#2488C9" d="M13.657,22.284c0-0.686-0.559-1.243-1.244-1.243H7.081c-0.688,0-1.244,0.558-1.244,1.243
		v5.335c0,0.686,0.557,1.24,1.244,1.24h5.332c0.686,0,1.244-0.555,1.244-1.24V22.284z"/>
	<path id="XMLID_21_" fill="#2488C9" d="M44.164,22.387c0-0.688-0.558-1.244-1.243-1.244H18.879c-0.688,0-1.245,0.557-1.245,1.244
		v5.333c0,0.688,0.558,1.24,1.245,1.24h24.042c0.686,0,1.243-0.553,1.243-1.24V22.387z"/>
	<path id="XMLID_20_" fill="#2488C9" d="M13.657,34.894c0-0.687-0.557-1.242-1.244-1.242H7.081c-0.688,0-1.244,0.556-1.244,1.242
		v5.334c0,0.686,0.557,1.24,1.244,1.24h5.332c0.688,0,1.244-0.555,1.244-1.24V34.894z"/>
	<path id="XMLID_19_" fill="#2488C9" d="M44.164,34.995c0-0.686-0.558-1.243-1.243-1.243H18.879c-0.688,0-1.245,0.558-1.245,1.243
		v5.333c0,0.688,0.558,1.242,1.245,1.242h24.042c0.686,0,1.243-0.555,1.243-1.242V34.995z"/>
</g>
</svg>
