<?xml version="1.0" encoding="utf-8"?>
<!-- Generator: Adobe Illustrator 16.0.0, SVG Export Plug-In . SVG Version: 6.00 Build 0)  -->
<!DOCTYPE svg PUBLIC "-//W3C//DTD SVG 1.1//EN" "http://www.w3.org/Graphics/SVG/1.1/DTD/svg11.dtd">
<svg version="1.1" id="Layer_1" xmlns="http://www.w3.org/2000/svg" xmlns:xlink="http://www.w3.org/1999/xlink" x="0px" y="0px"
	 width="50px" height="50px" viewBox="0 0 50 50" enable-background="new 0 0 50 50" xml:space="preserve">
<path fill="none" stroke="#FFFFFF" stroke-width="4" stroke-miterlimit="10" d="M17.979,8.608c-2.934,0.522-5.383,2.677-6.341,5.547
	l-0.551,1.699H9.909c-2.185,0-4.017,1.531-4.017,3.609c0,1.254,0.667,2.305,1.673,2.947c0.124,0.063,0.277,0.114,0.277,0.114
	l-1.14,1.487c-1.3,1.69-2,3.784-2,5.97v8.461c0,1.991,1.623,3.609,3.618,3.609h3.413c1.762,0,3.232-1.235,3.58-2.974l0.359-1.771
	h18.651l0.356,1.749c0.352,1.753,1.812,2.996,3.58,2.996h3.417c1.994,0,3.618-1.618,3.618-3.609v-8.461
	c0-2.186-0.7-4.279-2.008-5.979c0,0-0.737-0.97-1.103-1.456c0.587-0.177,1.921-1.005,1.921-3.084c0-2.078-1.832-3.609-4.02-3.609
	h-1.126l-0.68-1.707c-0.959-2.862-3.408-5.017-6.336-5.537C29.512,8.171,27.249,7.947,25,7.947
	C22.769,7.947,20.574,8.161,17.979,8.608"/>
</svg>
