<?xml version="1.0" encoding="utf-8"?>
<!-- Generator: Adobe Illustrator 16.0.0, SVG Export Plug-In . SVG Version: 6.00 Build 0)  -->
<!DOCTYPE svg PUBLIC "-//W3C//DTD SVG 1.1//EN" "http://www.w3.org/Graphics/SVG/1.1/DTD/svg11.dtd">
<svg version="1.1" id="Layer_1" xmlns="http://www.w3.org/2000/svg" xmlns:xlink="http://www.w3.org/1999/xlink" x="0px" y="0px"
	 width="50px" height="50px" viewBox="0 0 50 50" enable-background="new 0 0 50 50" xml:space="preserve">
<path id="XMLID_992_" fill="#2488C9" d="M21.01,44.348c-0.451,0-0.876-0.177-1.192-0.494l-7.802-7.831
	c-0.324-0.329-0.474-0.757-0.474-1.187c0-0.433,0.188-0.864,0.524-1.193c0.656-0.656,1.781-0.652,2.438,0.008l5.034,4.939V22.157
	c0-0.933,0.749-1.683,1.681-1.683s1.681,0.75,1.681,1.683V38.59l4.826-4.939c0.657-0.66,1.615-0.664,2.275-0.008
	c0.662,0.657,0.666,1.721,0.01,2.38l-7.808,7.831C21.885,44.171,21.458,44.348,21.01,44.348z M27.109,11.41v16.434
	c0,0.928,0.752,1.679,1.685,1.679c0.928,0,1.681-0.751,1.681-1.679V11.41l5.034,4.939c0.656,0.658,1.778,0.66,2.438,0.004
	c0.664-0.652,0.69-1.719,0.034-2.377l-7.791-7.83c-0.318-0.316-0.743-0.494-1.193-0.494c-0.447,0-0.876,0.178-1.191,0.494
	l-7.803,7.83c-0.332,0.328-0.494,0.756-0.494,1.188c0,0.431,0.17,0.86,0.502,1.188c0.656,0.656,1.62,0.654,2.28-0.004L27.109,11.41z
	"/>
</svg>
