<?xml version="1.0" encoding="utf-8"?>
<!-- Generator: Adobe Illustrator 16.0.0, SVG Export Plug-In . SVG Version: 6.00 Build 0)  -->
<!DOCTYPE svg PUBLIC "-//W3C//DTD SVG 1.1//EN" "http://www.w3.org/Graphics/SVG/1.1/DTD/svg11.dtd">
<svg version="1.1" id="Layer_1" xmlns="http://www.w3.org/2000/svg" xmlns:xlink="http://www.w3.org/1999/xlink" x="0px" y="0px"
	 width="50px" height="50px" viewBox="0 0 50 50" enable-background="new 0 0 50 50" xml:space="preserve">
<g>
	<circle fill="none" stroke="#FFFFFF" stroke-width="4" stroke-miterlimit="10" cx="25" cy="25" r="20.164"/>
	<g>
		<g id="XMLID_684_">
			<path id="XMLID_692_" fill="#FFFFFF" d="M25,25.301c3.455,0,6.266-2.823,6.266-6.296c0-3.469-2.811-6.296-6.266-6.296
				c-3.455,0-6.266,2.827-6.266,6.296C18.734,22.478,21.545,25.301,25,25.301z"/>
			<path id="XMLID_691_" fill="#FFFFFF" d="M25,14.572c2.428,0,4.404,1.988,4.404,4.433S27.428,23.438,25,23.438
				c-2.429,0-4.406-1.989-4.406-4.434S22.571,14.572,25,14.572z"/>
		</g>
		<g id="XMLID_668_">
			<path id="XMLID_683_" fill="#FFFFFF" d="M27.901,27.795c-0.306-0.099-0.642-0.03-0.886,0.178L25,29.685l-2.015-1.712
				c-0.246-0.208-0.581-0.276-0.886-0.178c-1.305,0.418-7.805,2.653-7.805,5.881c0,0.515,0.417,0.929,0.93,0.929h19.552
				c0.515,0,0.931-0.414,0.931-0.929C35.706,30.448,29.204,28.213,27.901,27.795z"/>
			<path id="XMLID_669_" fill="#FFFFFF" d="M16.644,32.743c1.027-1.086,3.482-2.296,5.535-3.009l2.218,1.884
				c0.35,0.296,0.858,0.296,1.207,0l2.217-1.884c2.055,0.713,4.511,1.923,5.534,3.009H16.644z"/>
		</g>
	</g>
</g>
</svg>
