<?xml version="1.0" encoding="utf-8"?>
<!-- Generator: Adobe Illustrator 16.0.0, SVG Export Plug-In . SVG Version: 6.00 Build 0)  -->
<!DOCTYPE svg PUBLIC "-//W3C//DTD SVG 1.1//EN" "http://www.w3.org/Graphics/SVG/1.1/DTD/svg11.dtd">
<svg version="1.1" id="Layer_1" xmlns="http://www.w3.org/2000/svg" xmlns:xlink="http://www.w3.org/1999/xlink" x="0px" y="0px"
	 width="50px" height="50px" viewBox="0 0 50 50" enable-background="new 0 0 50 50" xml:space="preserve">
<g>
	<defs>
		<path id="SVGID_1_" d="M16.109,30.312c0-0.244,3.96-0.886,8.89-0.884c4.851,0.002,8.894,0.642,8.894,0.884
			c0,0.491-1.78,4.428-8.894,4.428C17.887,34.739,16.109,30.802,16.109,30.312 M42.177,28.118c0-0.361-0.093-0.702-0.254-0.998
			l0.114-0.016c1.154-0.177,2.133,0.709,2.133,1.86l0.088,1.328c0,0.975-0.889,1.86-1.866,1.86h-3.38
			c-0.826,0-1.903-0.797-1.957-1.772v-0.886c0-0.681,0.369-1.416,0.987-1.756c-0.023,0.123-0.037,0.25-0.037,0.379
			c0,1.146,0.934,2.077,2.087,2.077C41.245,30.195,42.177,29.264,42.177,28.118 M5.822,30.223l0.088-1.328
			c0-1.042,0.803-1.869,1.816-1.882c-0.202,0.32-0.318,0.699-0.318,1.104c0,1.146,0.932,2.077,2.084,2.077
			c1.15,0,2.083-0.931,2.083-2.077c0-0.221-0.034-0.434-0.096-0.634c0.946,0.119,1.546,1.073,1.546,1.943v0.884
			c-0.054,0.974-1.13,1.772-1.957,1.772h-3.38C6.71,32.083,5.822,31.198,5.822,30.223 M14.329,11.719
			c1.78-2.656,7.114-2.656,10.67-2.656c3.557,0,8.447,0,10.672,2.656c2.222,2.656,2.669,7.083,2.669,7.97
			c-2.669,0-9.339-0.444-13.341-0.444c-4,0-10.226,0.444-13.339,0.444C11.66,18.361,12.551,14.375,14.329,11.719 M17.377,8.014
			c-2.789,0.496-5.114,2.562-6.025,5.285l-0.941,2.851l-2.304-0.003c-1.7,0-3.113,1.125-3.113,2.656
			c0,1.531,1.413,2.656,3.113,2.656l-2.49,3.274c-1.27,1.658-1.957,3.705-1.957,5.847v9.474c0,1.46,1.199,2.653,2.667,2.653h3.825
			c1.315,0,2.388-0.917,2.65-2.214l0.639-3.098h23.12l0.634,3.063c0.267,1.331,1.343,2.248,2.655,2.248h3.825
			c1.468,0,2.667-1.193,2.667-2.653v-9.474c0-2.142-0.687-4.189-1.96-5.852l-2.487-3.269c1.7,0,3.113-1.125,3.113-2.656
			c0-1.53-1.413-2.656-3.113-2.656l-2.222,0.003l-1.115-2.856c-0.909-2.718-3.235-4.784-6.021-5.278
			c-2.534-0.46-5.002-0.722-7.538-0.722C22.481,7.293,20.075,7.548,17.377,8.014"/>
	</defs>
	<clipPath id="SVGID_2_">
		<use xlink:href="#SVGID_1_"  overflow="visible"/>
	</clipPath>
	<rect x="0.819" y="4.454" clip-path="url(#SVGID_2_)" fill="#B5B5B5" width="48.361" height="41.093"/>
</g>
</svg>
